<svg width="52" height="35" viewBox="0 0 52 35" fill="none" xmlns="http://www.w3.org/2000/svg">
<path d="M37.3988 28.7786V11.3776H3.39893V28.7786C3.39893 29.5179 4.15999 30.1172 5.09892 30.1172H35.6988C36.6377 30.1172 37.3988 29.5179 37.3988 28.7786Z" fill="#289BC3"/>
<path d="M13.6015 26.1015H10.2015C7.38486 26.1015 5.10156 27.8993 5.10156 30.1171C5.10156 32.3349 7.38486 34.1328 10.2015 34.1328H13.6015C16.4182 34.1328 18.7015 32.3349 18.7015 30.1171C18.7015 27.8993 16.4182 26.1015 13.6015 26.1015Z" fill="#32283C"/>
<path d="M44.1987 26.1015H40.7987C37.982 26.1015 35.6987 27.8993 35.6987 30.1171C35.6987 32.3349 37.982 34.1328 40.7987 34.1328H44.1987C47.0154 34.1328 49.2987 32.3349 49.2987 30.1171C49.2987 27.8993 47.0154 26.1015 44.1987 26.1015Z" fill="#32283C"/>
<path d="M40.7987 34.1328C43.6153 34.1328 45.8987 32.3349 45.8987 30.1171C45.8987 27.8994 43.6153 26.1015 40.7987 26.1015C37.9821 26.1015 35.6987 27.8994 35.6987 30.1171C35.6987 32.3349 37.9821 34.1328 40.7987 34.1328Z" fill="#555A6E"/>
<path d="M40.7976 31.4557C41.7365 31.4557 42.4976 30.8564 42.4976 30.1172C42.4976 29.3779 41.7365 28.7786 40.7976 28.7786C39.8588 28.7786 39.0977 29.3779 39.0977 30.1172C39.0977 30.8564 39.8588 31.4557 40.7976 31.4557Z" fill="#E6E6EB"/>
<path d="M30.601 26.1015H27.201C24.3844 26.1015 22.1011 27.8993 22.1011 30.1171C22.1011 32.3349 24.3844 34.1328 27.201 34.1328H30.601C33.4177 34.1328 35.701 32.3349 35.701 30.1171C35.701 27.8993 33.4177 26.1015 30.601 26.1015Z" fill="#32283C"/>
<path d="M47.6022 12.7161H22.1023C21.1634 12.7161 20.4023 13.3154 20.4023 14.0547V15.3932H47.6022C48.5411 15.3932 49.3022 14.794 49.3022 14.0547C49.3022 13.3154 48.5411 12.7161 47.6022 12.7161Z" fill="#A5C3DC"/>
<path d="M30.6023 12.7161H22.1023C21.1634 12.7161 20.4023 13.3154 20.4023 14.0547V15.3932H30.6023C31.5412 15.3932 32.3023 14.794 32.3023 14.0547C32.3023 13.3154 31.5412 12.7161 30.6023 12.7161Z" fill="#D7E6F0"/>
<path d="M20.4023 15.3932H47.6022V22.0859H20.4023V15.3932Z" fill="#463C4B"/>
<path d="M20.4023 15.3932H30.6023V22.0859H20.4023V15.3932Z" fill="#555A6E"/>
<path d="M49.3022 30.1171H22.1023C21.1634 30.1171 20.4023 29.5179 20.4023 28.7786V22.0859H47.6022C49.4799 22.0859 51.0022 23.2845 51.0022 24.763V28.7786C51.0022 29.5179 50.2411 30.1171 49.3022 30.1171Z" fill="#A5C3DC"/>
<path d="M32.3023 30.1171H22.1023C21.1634 30.1171 20.4023 29.5179 20.4023 28.7786V22.0859H30.6023C32.48 22.0859 34.0023 23.2845 34.0023 24.763V28.7786C34.0023 29.5179 33.2412 30.1171 32.3023 30.1171Z" fill="#D7E6F0"/>
<path d="M38.1072 24.763H46.8905C48.2206 24.763 49.2988 25.612 49.2988 26.6593C49.2988 27.7065 48.2205 28.5556 46.8904 28.5556H38.1071C36.7771 28.5556 35.6987 27.7066 35.6987 26.6593C35.6988 25.612 36.7771 24.763 38.1072 24.763Z" fill="#555A6E"/>
<path d="M38.1109 27.6632C38.8151 27.6632 39.3859 27.2137 39.3859 26.6593C39.3859 26.1049 38.8151 25.6554 38.1109 25.6554C37.4068 25.6554 36.8359 26.1049 36.8359 26.6593C36.8359 27.2137 37.4068 27.6632 38.1109 27.6632Z" fill="#00D2D2"/>
<path d="M46.8883 27.6632C47.5924 27.6632 48.1633 27.2137 48.1633 26.6593C48.1633 26.1049 47.5924 25.6554 46.8883 25.6554C46.1841 25.6554 45.6133 26.1049 45.6133 26.6593C45.6133 27.2137 46.1841 27.6632 46.8883 27.6632Z" fill="#00D2D2"/>
<path d="M16.1497 -6.10352e-05H11.0497C10.5803 -6.10352e-05 10.1997 0.299605 10.1997 0.669211C10.1997 1.03882 10.5803 1.33848 11.0497 1.33848C14.3305 1.33848 16.9997 3.44016 16.9997 6.02338C16.9997 6.39299 17.3803 6.69265 17.8497 6.69265H22.9496C23.4191 6.69265 23.7996 6.39299 23.7996 6.02338C23.7996 2.70204 20.3679 -6.10352e-05 16.1497 -6.10352e-05Z" fill="#A5C3DC"/>
<path d="M29.7494 -6.10352e-05H24.6495C20.4313 -6.10352e-05 16.9995 2.70204 16.9995 6.02338C16.9995 6.39299 17.3801 6.69265 17.8495 6.69265H22.9495C23.4189 6.69265 23.7995 6.39299 23.7995 6.02338C23.7995 3.44016 26.4687 1.33848 29.7494 1.33848C30.2189 1.33848 30.5994 1.03882 30.5994 0.669211C30.5994 0.299605 30.2189 -6.10352e-05 29.7494 -6.10352e-05Z" fill="#A5C3DC"/>
<path d="M33.1497 -6.10352e-05H28.0497C27.5803 -6.10352e-05 27.1997 0.299605 27.1997 0.669211C27.1997 1.03882 27.5803 1.33848 28.0497 1.33848C29.4558 1.33848 30.5997 2.23915 30.5997 3.3463C30.5997 4.45344 29.4558 5.35411 28.0497 5.35411C27.5803 5.35411 27.1997 5.65378 27.1997 6.02338C27.1997 6.39299 27.5803 6.69265 28.0497 6.69265H33.1497C35.4931 6.69265 37.3997 5.19148 37.3997 3.3463C37.3997 1.50112 35.4931 -6.10352e-05 33.1497 -6.10352e-05Z" fill="#A5C3DC"/>
<path d="M12.7489 5.35411C11.3428 5.35411 10.1989 4.45344 10.1989 3.3463C10.1989 2.23915 11.3428 1.33848 12.7489 1.33848C13.2183 1.33848 13.5989 1.03882 13.5989 0.669211C13.5989 0.299605 13.2183 -6.10352e-05 12.7489 -6.10352e-05H7.6489C5.30547 -6.10352e-05 3.39893 1.50112 3.39893 3.3463C3.39893 5.19148 5.30547 6.69265 7.6489 6.69265H12.7489C13.2183 6.69265 13.5989 6.39299 13.5989 6.02338C13.5989 5.65378 13.2183 5.35411 12.7489 5.35411Z" fill="#A5C3DC"/>
<path d="M39.0998 6.69269H1.69999C0.761065 6.69269 0 7.29194 0 8.03123V10.039C0 10.7783 0.761065 11.3776 1.69999 11.3776H39.0998C40.0387 11.3776 40.7998 10.7783 40.7998 10.039V8.03123C40.7998 7.29194 40.0387 6.69269 39.0998 6.69269Z" fill="#289BC3"/>
<path d="M18.6988 30.1172H5.09892C4.15999 30.1172 3.39893 29.5179 3.39893 28.7786V15.3932H20.3988V28.7786C20.3988 29.5179 19.6378 30.1172 18.6988 30.1172Z" fill="#00D2D2"/>
<path d="M20.3999 6.69269H1.69999C0.761065 6.69269 0 7.29194 0 8.03123V10.039C0 10.7783 0.761065 11.3776 1.69999 11.3776H20.3999C21.3388 11.3776 22.0999 10.7783 22.0999 10.039V8.03123C22.0999 7.29194 21.3388 6.69269 20.3999 6.69269Z" fill="#00D2D2"/>
<path d="M11.8978 10.039C11.8978 10.7783 12.6589 11.3775 13.5978 11.3775H8.49784C7.55892 11.3775 6.79785 10.7783 6.79785 10.039V8.03117C6.79785 7.29188 7.55892 6.69263 8.49784 6.69263H13.5978C12.6589 6.69263 11.8978 7.29188 11.8978 8.03117V10.039Z" fill="#D7E6F0"/>
<path d="M28.9031 10.039C28.9031 10.7783 28.1421 11.3776 27.2031 11.3776H32.3031C33.242 11.3776 34.0031 10.7783 34.0031 10.039V8.03123C34.0031 7.29194 33.242 6.69269 32.3031 6.69269H27.2031C28.1421 6.69269 28.9031 7.29194 28.9031 8.03123V10.039Z" fill="#A5C3DC"/>
<path d="M28.0529 6.69265H17.0029V6.02338C17.0029 2.70204 20.4347 -6.10352e-05 24.6529 -6.10352e-05H28.0529C30.3963 -6.10352e-05 32.3028 1.50112 32.3028 3.3463C32.3028 5.19148 30.3963 6.69265 28.0529 6.69265ZM18.7635 5.35411H28.0529C29.459 5.35411 30.6029 4.45344 30.6029 3.3463C30.6029 2.23915 29.459 1.33848 28.0529 1.33848H24.6529C21.6606 1.33848 19.1771 3.0867 18.7635 5.35411Z" fill="#D7E6F0"/>
<path d="M18.6988 6.69265H7.6489C5.30547 6.69265 3.39893 5.19148 3.39893 3.3463C3.39893 1.50112 5.30547 -6.10352e-05 7.6489 -6.10352e-05H11.0489C15.2671 -6.10352e-05 18.6988 2.70204 18.6988 6.02338V6.69265ZM7.6489 1.33848C6.2428 1.33848 5.09892 2.23915 5.09892 3.3463C5.09892 4.45344 6.2428 5.35411 7.6489 5.35411H16.9383C16.5246 3.0867 14.0411 1.33848 11.0489 1.33848H7.6489Z" fill="#D7E6F0"/>
<path d="M27.201 34.1328C30.0177 34.1328 32.301 32.3349 32.301 30.1171C32.301 27.8994 30.0177 26.1015 27.201 26.1015C24.3844 26.1015 22.1011 27.8994 22.1011 30.1171C22.1011 32.3349 24.3844 34.1328 27.201 34.1328Z" fill="#555A6E"/>
<path d="M27.2 31.4557C28.1389 31.4557 28.9 30.8564 28.9 30.1172C28.9 29.3779 28.1389 28.7786 27.2 28.7786C26.2611 28.7786 25.5 29.3779 25.5 30.1172C25.5 30.8564 26.2611 31.4557 27.2 31.4557Z" fill="#E6E6EB"/>
<path d="M10.2015 34.1328C13.0182 34.1328 15.3015 32.3349 15.3015 30.1171C15.3015 27.8994 13.0182 26.1015 10.2015 26.1015C7.3849 26.1015 5.10156 27.8994 5.10156 30.1171C5.10156 32.3349 7.3849 34.1328 10.2015 34.1328Z" fill="#555A6E"/>
<path d="M10.1966 31.4557C11.1355 31.4557 11.8966 30.8564 11.8966 30.1172C11.8966 29.3779 11.1355 28.7786 10.1966 28.7786C9.25769 28.7786 8.49658 29.3779 8.49658 30.1172C8.49658 30.8564 9.25769 31.4557 10.1966 31.4557Z" fill="#E6E6EB"/>
</svg>
