<svg width="32" height="34" viewBox="0 0 32 34" fill="none" xmlns="http://www.w3.org/2000/svg">
<path d="M15.8877 14.6641L2.3125 16.6021L7.4074 32.3386C7.55508 32.7649 8.04734 33.075 8.61344 33.075H23.3813C23.9473 33.075 24.4396 32.7649 24.5873 32.3386L29.6824 16.6021L15.8877 14.6641ZM13.5361 11.7571C14.2163 11.7571 14.7667 11.3237 14.7667 10.7881V0.968994C14.7667 0.433399 14.2163 0 13.5361 0C12.8558 0 12.3054 0.433399 12.3054 0.968994V10.7881C12.3054 11.3237 12.8558 11.7571 13.5361 11.7571ZM18.4587 11.7571C19.1389 11.7571 19.6893 11.3237 19.6893 10.7881V0.968994C19.6893 0.433399 19.1389 0 18.4587 0C17.7784 0 17.228 0.433399 17.228 0.968994V10.7881C17.228 11.3237 17.7784 11.7571 18.4587 11.7571Z" fill="url(#paint0_linear_1_151)"/>
<path d="M31.3092 11.854C30.7185 11.6215 29.98 11.8152 29.6603 12.2997L28.1587 14.6641L24.4176 10.2454C24.1715 9.97413 23.8022 9.81915 23.3839 9.81915H8.61606C8.19764 9.81915 7.82844 9.97413 7.58231 10.2454L3.84113 14.6641L2.33973 12.2997C2.01976 11.8152 1.28137 11.6215 0.690738 11.854C0.0754119 12.106 -0.170801 12.6874 0.124556 13.1524L2.31512 16.6021H29.685L31.8753 13.1524C32.1709 12.6873 31.9245 12.106 31.3092 11.854ZM16 21.4471C13.9642 21.4471 12.308 22.7511 12.308 24.3541C12.308 25.957 13.9642 27.2611 16 27.2611C18.0358 27.2611 19.6919 25.957 19.6919 24.3541C19.6919 22.7511 18.0358 21.4471 16 21.4471Z" fill="url(#paint1_linear_1_151)"/>
<defs>
<linearGradient id="paint0_linear_1_151" x1="15.9974" y1="33.075" x2="15.9974" y2="0" gradientUnits="userSpaceOnUse">
<stop stop-color="#FD3A84"/>
<stop offset="1" stop-color="#FFA68D"/>
</linearGradient>
<linearGradient id="paint1_linear_1_151" x1="16" y1="27.2611" x2="16" y2="9.81915" gradientUnits="userSpaceOnUse">
<stop stop-color="#FFC2CC"/>
<stop offset="1" stop-color="#FFF2F4"/>
</linearGradient>
</defs>
</svg>
